<svg width="608" height="256" viewBox="0 0 608 256" fill="none" xmlns="http://www.w3.org/2000/svg">
<rect x="77" y="68" width="296" height="144" rx="19.0463" fill="#77E3EF"/>
<path d="M244.599 123.661C243.455 122.887 243.155 121.333 243.928 120.189L256.529 101.549C257.303 100.405 258.857 100.105 260.001 100.878C261.145 101.651 261.445 103.206 260.672 104.349L249.471 120.918L266.04 132.12C267.183 132.893 267.484 134.447 266.711 135.591C265.937 136.735 264.383 137.035 263.239 136.262L244.599 123.661ZM502.273 110.758C474.338 129.639 449.548 124.88 412.79 119.712C375.959 114.534 326.041 108.664 246.474 124.044L245.525 119.135C325.831 103.612 376.349 109.54 413.486 114.761C450.696 119.993 473.407 124.234 499.473 106.615L502.273 110.758Z" fill="white"/>
<path d="M99.9915 115.329H105.211V134.239H99.9915V115.329ZM114.867 115.329H120.112V134.239H114.867V115.329ZM102.916 122.313H117.036V126.952H102.916V122.313ZM127.335 130.608V126.398H140.37V130.608H127.335ZM137.395 115.329L145.993 134.239H140.421L133.209 117.548H134.722L127.486 134.239H121.914L130.512 115.329H137.395ZM152.935 128.541C150.246 128.541 148.187 127.843 146.758 126.448C145.346 125.036 144.64 123.002 144.64 120.346V115.329H149.859V119.918C149.859 121.246 150.221 122.246 150.943 122.918C151.666 123.591 152.75 123.927 154.196 123.927C155.036 123.927 155.919 123.834 156.843 123.649C157.768 123.448 158.692 123.162 159.617 122.792L159.919 126.978C158.911 127.482 157.81 127.868 156.616 128.137C155.423 128.406 154.196 128.541 152.935 128.541ZM158.936 134.239V115.329H164.18V134.239H158.936ZM171.36 130.608V126.398H184.395V130.608H171.36ZM181.42 115.329L190.018 134.239H184.445L177.234 117.548H178.747L171.511 134.239H165.939L174.537 115.329H181.42ZM194.705 117.623H199.949V134.239H194.705V117.623ZM187.494 115.329H207.16V119.968H187.494V115.329ZM209.414 134.239V115.329H214.633V132.474L212.288 130.129H219.65C220.507 130.129 221.171 129.911 221.642 129.474C222.129 129.037 222.373 128.448 222.373 127.709C222.373 126.952 222.129 126.364 221.642 125.944C221.171 125.524 220.507 125.313 219.65 125.313H211.834V121.178H219.978C221.575 121.178 222.945 121.456 224.088 122.011C225.247 122.548 226.13 123.305 226.735 124.28C227.357 125.255 227.668 126.398 227.668 127.709C227.668 129.02 227.357 130.171 226.735 131.163C226.13 132.138 225.247 132.894 224.088 133.432C222.945 133.97 221.575 134.239 219.978 134.239H209.414ZM120.011 146.329V165.239H114.792V148.598L117.137 150.968H102.866L105.211 148.598V165.239H99.9915V146.329H120.011ZM127.993 165.239L131.397 159.314H131.473L138.86 146.329H144.533L133.666 165.239H127.993ZM131.321 162.692L121.866 146.329H127.64L135.028 159.188L131.321 162.692ZM152.231 148.623H157.476V165.239H152.231V148.623ZM145.02 146.329H164.687V150.968H145.02V146.329ZM183.102 153.893V157.675H169.259V153.893H183.102ZM172.815 155.784L171.579 163.373L169.461 161.003H183.934V165.239H166.36L167.797 155.784L166.36 146.329H183.808V150.565H169.461L171.579 148.195L172.815 155.784ZM214.819 160.6L212.474 162.97V146.329H217.693V165.239H186.958V146.329H192.177V162.97L189.832 160.6H201.834L199.716 162.97V146.329H204.935V162.97L202.741 160.6H214.819ZM237.394 153.893V157.675H223.552V153.893H237.394ZM227.107 155.784L225.872 163.373L223.754 161.003H238.226V165.239H220.652L222.09 155.784L220.652 146.329H238.1V150.565H223.754L225.872 148.195L227.107 155.784ZM261.958 157.322C261.773 158.986 261.201 160.448 260.243 161.709C259.285 162.953 258.024 163.92 256.461 164.609C254.915 165.298 253.133 165.642 251.116 165.642C248.914 165.642 246.989 165.231 245.342 164.407C243.695 163.583 242.409 162.432 241.484 160.953C240.577 159.474 240.123 157.751 240.123 155.784C240.123 153.817 240.577 152.094 241.484 150.615C242.409 149.136 243.695 147.985 245.342 147.161C246.989 146.337 248.914 145.926 251.116 145.926C253.133 145.926 254.915 146.27 256.461 146.959C258.024 147.648 259.285 148.623 260.243 149.884C261.201 151.128 261.773 152.582 261.958 154.246H256.713C256.545 153.439 256.217 152.758 255.73 152.204C255.242 151.632 254.604 151.195 253.814 150.893C253.04 150.59 252.141 150.439 251.116 150.439C249.939 150.439 248.922 150.657 248.065 151.094C247.208 151.515 246.552 152.128 246.098 152.935C245.644 153.725 245.418 154.675 245.418 155.784C245.418 156.893 245.644 157.852 246.098 158.658C246.552 159.448 247.208 160.062 248.065 160.499C248.922 160.919 249.939 161.129 251.116 161.129C252.141 161.129 253.04 160.986 253.814 160.701C254.604 160.415 255.242 159.986 255.73 159.415C256.217 158.843 256.545 158.146 256.713 157.322H261.958ZM269.705 148.623H274.949V165.239H269.705V148.623ZM262.494 146.329H282.16V150.968H262.494V146.329ZM297.222 155.986L297.65 155.002C299.113 155.036 300.315 155.263 301.256 155.683C302.214 156.087 302.928 156.658 303.399 157.398C303.87 158.12 304.105 158.961 304.105 159.919C304.105 160.944 303.87 161.86 303.399 162.667C302.928 163.457 302.222 164.088 301.281 164.558C300.357 165.012 299.197 165.239 297.802 165.239H283.833L285.296 155.532L283.833 146.329H297.297C299.046 146.329 300.407 146.741 301.382 147.564C302.357 148.371 302.844 149.497 302.844 150.943C302.844 151.733 302.659 152.489 302.29 153.212C301.92 153.935 301.323 154.549 300.499 155.053C299.693 155.54 298.6 155.851 297.222 155.986ZM289.002 164.029L286.985 161.583H296.39C297.146 161.583 297.734 161.398 298.155 161.028C298.575 160.659 298.785 160.146 298.785 159.49C298.785 158.835 298.558 158.314 298.104 157.927C297.65 157.524 296.978 157.322 296.087 157.322H288.321V153.742H295.381C295.986 153.742 296.491 153.565 296.894 153.212C297.314 152.842 297.524 152.347 297.524 151.725C297.524 151.22 297.348 150.809 296.995 150.489C296.642 150.153 296.138 149.985 295.482 149.985H287.01L289.002 147.539L290.288 155.532L289.002 164.029ZM306.672 165.239V146.329H311.816V162.491L310.378 162.163L321.094 146.329H327.927V165.239H322.758V148.775L324.221 149.102L313.303 165.239H306.672ZM347.629 153.893V157.675H333.786V153.893H347.629ZM337.342 155.784L336.106 163.373L333.988 161.003H348.461V165.239H330.887L332.324 155.784L330.887 146.329H348.335V150.565H333.988L336.106 148.195L337.342 155.784Z" fill="#D2AB66"/>
</svg>
