<svg width="66" height="66" viewBox="0 0 66 66" fill="none" xmlns="http://www.w3.org/2000/svg">
<path d="M13.7109 16.5877C13.7109 15.092 14.9235 13.8794 16.4193 13.8794H24.5443C26.04 13.8794 27.2526 15.092 27.2526 16.5877V49.0877C27.2526 50.5835 26.04 51.7961 24.5443 51.7961H16.4193C14.9235 51.7961 13.7109 50.5835 13.7109 49.0877V16.5877Z" fill="#D9D9D9"/>
<path d="M38.0859 16.5877C38.0859 15.092 39.2985 13.8794 40.7943 13.8794H48.9193C50.415 13.8794 51.6276 15.092 51.6276 16.5877V49.0877C51.6276 50.5835 50.415 51.7961 48.9193 51.7961H40.7943C39.2985 51.7961 38.0859 50.5835 38.0859 49.0877V16.5877Z" fill="#D9D9D9"/>
</svg>
