<svg width="20" height="21" viewBox="0 0 20 21" fill="none" xmlns="http://www.w3.org/2000/svg">
<path d="M18.125 3.34961C19.1406 3.34961 20 4.20898 20 5.22461C20 5.84961 19.6875 6.39648 19.2188 6.74805L10.7422 13.1152C10.2734 13.4668 9.6875 13.4668 9.21875 13.1152L0.742188 6.74805C0.273438 6.39648 0 5.84961 0 5.22461C0 4.20898 0.820312 3.34961 1.875 3.34961H18.125ZM8.47656 14.1309C9.375 14.7949 10.5859 14.7949 11.4844 14.1309L20 7.72461V15.8496C20 17.2559 18.8672 18.3496 17.5 18.3496H2.5C1.09375 18.3496 0 17.2559 0 15.8496V7.72461L8.47656 14.1309Z" fill="#717170"/>
</svg>
