<svg width="20" height="16" viewBox="0 0 20 16" fill="none" xmlns="http://www.w3.org/2000/svg">
<path d="M19.0742 13.4737C19.0742 13.8863 18.9018 14.282 18.5949 14.5737C18.2881 14.8654 17.8718 15.0293 17.4379 15.0293H2.71058C2.27659 15.0293 1.86038 14.8654 1.5535 14.5737C1.24662 14.282 1.07422 13.8863 1.07422 13.4737V4.91819C1.07422 4.50563 1.24662 4.10997 1.5535 3.81824C1.86038 3.52652 2.27659 3.36263 2.71058 3.36263H5.98331L7.61967 1.0293H12.5288L14.1651 3.36263H17.4379C17.8718 3.36263 18.2881 3.52652 18.5949 3.81824C18.9018 4.10997 19.0742 4.50563 19.0742 4.91819V13.4737Z" stroke="#FBD0AF" stroke-width="1.5" stroke-linecap="round" stroke-linejoin="round"/>
<path d="M10.0742 12.0293C11.7311 12.0293 13.0742 10.6862 13.0742 9.0293C13.0742 7.37244 11.7311 6.0293 10.0742 6.0293C8.41736 6.0293 7.07422 7.37244 7.07422 9.0293C7.07422 10.6862 8.41736 12.0293 10.0742 12.0293Z" stroke="#FBD0AF" stroke-width="1.5" stroke-linecap="round" stroke-linejoin="round"/>
</svg>
