<svg width="17" height="17" viewBox="0 0 17 17" fill="none" xmlns="http://www.w3.org/2000/svg">
<path d="M5.08203 7.37793C5.54688 7.37793 5.92969 7.78809 5.92969 8.25293C5.92969 8.74512 5.54688 9.12793 5.08203 9.12793C4.58984 9.12793 4.20703 8.74512 4.20703 8.25293C4.20703 7.78809 4.58984 7.37793 5.08203 7.37793ZM8.14453 7.37793C8.60938 7.37793 8.99219 7.78809 8.99219 8.25293C8.99219 8.69043 8.58203 9.10059 8.14453 9.10059C7.67969 9.10059 7.26953 8.71777 7.26953 8.25293C7.26953 7.76074 7.65234 7.37793 8.14453 7.37793ZM11.207 7.37793C11.6719 7.37793 12.082 7.78809 12.0547 8.25293C12.0547 8.74512 11.6719 9.12793 11.207 9.12793C10.7422 9.12793 10.332 8.74512 10.332 8.25293C10.332 7.78809 10.7148 7.37793 11.207 7.37793ZM8.14453 2.56543C12 2.56543 15.1172 5.16309 15.1172 8.28027C15.1172 11.3975 12 13.9404 8.14453 13.9404C7.24219 13.9404 6.36719 13.8037 5.60156 13.5576C4.78125 14.1318 3.46875 14.8154 1.80078 14.8154C1.52734 14.8154 1.28125 14.6787 1.19922 14.4053C1.11719 14.1592 1.14453 13.8857 1.33594 13.6943C1.33594 13.6943 2.18359 12.7646 2.59375 11.6982C1.69141 10.7412 1.14453 9.53809 1.14453 8.25293C1.14453 5.1084 4.26172 2.56543 8.14453 2.56543ZM8.14453 12.6279C11.2617 12.6279 13.7773 10.6865 13.7773 8.25293C13.7773 5.84668 11.2344 3.87793 8.11719 3.87793C5 3.87793 2.45703 5.84668 2.45703 8.25293C2.45703 9.42871 3.03125 10.3037 3.52344 10.8232L4.09766 11.4248L3.79688 12.1904C3.66016 12.5732 3.46875 12.9561 3.25 13.2842C3.90625 13.0654 4.45312 12.7646 4.83594 12.4912L5.35547 12.1084L5.98438 12.2998C6.66797 12.5186 7.40625 12.6279 8.14453 12.6279Z" fill="url(#paint0_linear_10934_3899)"/>
<defs>
<linearGradient id="paint0_linear_10934_3899" x1="15.1445" y1="8.94043" x2="1.98453" y2="8.94043" gradientUnits="userSpaceOnUse">
<stop offset="0.0549713" stop-color="#ECCFC6"/>
<stop offset="1" stop-color="#FAD7CC"/>
</linearGradient>
</defs>
</svg>
